<mxfile host="65bd71144e">
    <diagram id="6SdW7Xw68i-UTDWBZWGj" name="1-Topics">
        <mxGraphModel dx="1331" dy="2674" grid="1" gridSize="10" guides="1" tooltips="1" connect="1" arrows="1" fold="1" page="1" pageScale="1" pageWidth="850" pageHeight="1100" math="0" shadow="0">
            <root>
                <mxCell id="0"/>
                <mxCell id="1" parent="0"/>
                <mxCell id="15" value="" style="whiteSpace=wrap;html=1;fontFamily=Helvetica;fontSize=11;fontColor=default;labelBackgroundColor=default;movable=1;resizable=1;rotatable=1;deletable=1;editable=1;locked=0;connectable=1;" parent="1" vertex="1">
                    <mxGeometry x="-390" width="1450" height="1230" as="geometry"/>
                </mxCell>
                <mxCell id="11" value="" style="rounded=1;whiteSpace=wrap;html=1;fontFamily=Helvetica;fontSize=11;labelBackgroundColor=default;fillColor=#f8cecc;strokeColor=#b85450;" parent="1" vertex="1">
                    <mxGeometry x="-260" y="615" width="380" height="400" as="geometry"/>
                </mxCell>
                <mxCell id="10" value="" style="rounded=1;whiteSpace=wrap;html=1;fontFamily=Helvetica;fontSize=11;labelBackgroundColor=default;fillColor=#dae8fc;strokeColor=#6c8ebf;" parent="1" vertex="1">
                    <mxGeometry x="495" y="330" width="380" height="400" as="geometry"/>
                </mxCell>
                <mxCell id="5" style="edgeStyle=orthogonalEdgeStyle;html=1;exitX=0;exitY=0.5;exitDx=0;exitDy=0;entryX=1;entryY=0.5;entryDx=0;entryDy=0;curved=1;" parent="1" source="2" target="4" edge="1">
                    <mxGeometry relative="1" as="geometry"/>
                </mxCell>
                <mxCell id="13" value="msg" style="edgeLabel;html=1;align=center;verticalAlign=middle;resizable=0;points=[];fontFamily=Helvetica;fontSize=15;fontColor=default;labelBackgroundColor=default;" parent="5" vertex="1" connectable="0">
                    <mxGeometry x="0.1697" y="-1" relative="1" as="geometry">
                        <mxPoint x="-14" y="46" as="offset"/>
                    </mxGeometry>
                </mxCell>
                <mxCell id="2" value="msg_publisher" style="ellipse;whiteSpace=wrap;html=1;fillColor=#1ba1e2;strokeColor=#006EAF;fontColor=#ffffff;fontSize=16;fontStyle=1" parent="1" vertex="1">
                    <mxGeometry x="585" y="460" width="200" height="200" as="geometry"/>
                </mxCell>
                <mxCell id="3" value="msg_subscriber" style="ellipse;whiteSpace=wrap;html=1;fillColor=#f0a30a;fontColor=#000000;strokeColor=#BD7000;fontSize=16;" parent="1" vertex="1">
                    <mxGeometry x="-130" y="810" width="185" height="185" as="geometry"/>
                </mxCell>
                <mxCell id="6" style="edgeStyle=orthogonalEdgeStyle;html=1;entryX=1;entryY=0.5;entryDx=0;entryDy=0;curved=1;" parent="1" source="4" target="3" edge="1">
                    <mxGeometry relative="1" as="geometry"/>
                </mxCell>
                <mxCell id="14" value="msg" style="edgeLabel;html=1;align=center;verticalAlign=middle;resizable=0;points=[];fontFamily=Helvetica;fontSize=16;fontColor=default;labelBackgroundColor=default;" parent="6" vertex="1" connectable="0">
                    <mxGeometry x="-0.1433" y="13" relative="1" as="geometry">
                        <mxPoint as="offset"/>
                    </mxGeometry>
                </mxCell>
                <mxCell id="4" value="TOPIC" style="rounded=1;whiteSpace=wrap;html=1;fillColor=#e3c800;strokeColor=#B09500;fontColor=#000000;" parent="1" vertex="1">
                    <mxGeometry x="295" y="780" width="140" height="70" as="geometry"/>
                </mxCell>
                <mxCell id="9" value="&lt;span&gt;NODE 1&lt;/span&gt;" style="text;html=1;align=center;verticalAlign=middle;resizable=0;points=[];autosize=1;strokeColor=none;fillColor=none;fontFamily=Helvetica;fontSize=21;fontColor=default;labelBackgroundColor=none;strokeWidth=3;fontStyle=1" parent="1" vertex="1">
                    <mxGeometry x="515" y="340" width="100" height="40" as="geometry"/>
                </mxCell>
                <mxCell id="12" value="&lt;span&gt;NODE 2&lt;/span&gt;" style="text;html=1;align=center;verticalAlign=middle;resizable=0;points=[];autosize=1;strokeColor=none;fillColor=none;fontFamily=Helvetica;fontSize=21;fontColor=default;labelBackgroundColor=none;strokeWidth=3;fontStyle=1" parent="1" vertex="1">
                    <mxGeometry x="-185" y="630" width="100" height="40" as="geometry"/>
                </mxCell>
                <mxCell id="16" value="&lt;h1&gt;&lt;font&gt;Publisher- Subscriber Model&lt;/font&gt;&lt;/h1&gt;" style="text;html=1;align=center;verticalAlign=middle;resizable=0;points=[];autosize=1;strokeColor=none;fillColor=none;fontFamily=Helvetica;fontSize=30;fontColor=default;labelBackgroundColor=default;" parent="1" vertex="1">
                    <mxGeometry x="-130" width="840" height="170" as="geometry"/>
                </mxCell>
                <mxCell id="31" value="" style="whiteSpace=wrap;html=1;fontFamily=Helvetica;fontSize=11;fontColor=default;labelBackgroundColor=default;movable=1;resizable=1;rotatable=1;deletable=1;editable=1;locked=0;connectable=1;" parent="1" vertex="1">
                    <mxGeometry x="-420" y="2210" width="1450" height="1230" as="geometry"/>
                </mxCell>
                <mxCell id="32" value="" style="rounded=1;whiteSpace=wrap;html=1;fontFamily=Helvetica;fontSize=11;labelBackgroundColor=default;fillColor=#f8cecc;strokeColor=#b85450;" parent="1" vertex="1">
                    <mxGeometry x="-235" y="2820" width="380" height="400" as="geometry"/>
                </mxCell>
                <mxCell id="33" value="" style="rounded=1;whiteSpace=wrap;html=1;fontFamily=Helvetica;fontSize=11;labelBackgroundColor=default;fillColor=#dae8fc;strokeColor=#6c8ebf;" parent="1" vertex="1">
                    <mxGeometry x="465" y="2540" width="380" height="400" as="geometry"/>
                </mxCell>
                <mxCell id="34" style="edgeStyle=orthogonalEdgeStyle;html=1;exitX=0;exitY=0.5;exitDx=0;exitDy=0;entryX=1;entryY=0.5;entryDx=0;entryDy=0;curved=1;" parent="1" source="36" target="40" edge="1">
                    <mxGeometry relative="1" as="geometry"/>
                </mxCell>
                <mxCell id="35" value="msg" style="edgeLabel;html=1;align=center;verticalAlign=middle;resizable=0;points=[];fontFamily=Helvetica;fontSize=15;fontColor=default;labelBackgroundColor=default;" parent="34" vertex="1" connectable="0">
                    <mxGeometry x="0.1697" y="-1" relative="1" as="geometry">
                        <mxPoint x="-14" y="46" as="offset"/>
                    </mxGeometry>
                </mxCell>
                <mxCell id="36" value="hello_publisher" style="ellipse;whiteSpace=wrap;html=1;fillColor=#1ba1e2;strokeColor=#006EAF;fontColor=#ffffff;fontSize=16;fontStyle=1" parent="1" vertex="1">
                    <mxGeometry x="555" y="2670" width="200" height="200" as="geometry"/>
                </mxCell>
                <mxCell id="37" value="hello_subscriber" style="ellipse;whiteSpace=wrap;html=1;fillColor=#f0a30a;fontColor=#000000;strokeColor=#BD7000;fontSize=16;" parent="1" vertex="1">
                    <mxGeometry x="-110" y="2995" width="185" height="185" as="geometry"/>
                </mxCell>
                <mxCell id="38" style="edgeStyle=orthogonalEdgeStyle;html=1;entryX=1;entryY=0.5;entryDx=0;entryDy=0;curved=1;" parent="1" source="40" target="37" edge="1">
                    <mxGeometry relative="1" as="geometry"/>
                </mxCell>
                <mxCell id="39" value="msg" style="edgeLabel;html=1;align=center;verticalAlign=middle;resizable=0;points=[];fontFamily=Helvetica;fontSize=16;fontColor=default;labelBackgroundColor=default;" parent="38" vertex="1" connectable="0">
                    <mxGeometry x="-0.1433" y="13" relative="1" as="geometry">
                        <mxPoint as="offset"/>
                    </mxGeometry>
                </mxCell>
                <mxCell id="40" value="/chatter" style="rounded=1;whiteSpace=wrap;html=1;fillColor=#e3c800;strokeColor=#B09500;fontColor=#000000;fontSize=16;" parent="1" vertex="1">
                    <mxGeometry x="265" y="2990" width="140" height="70" as="geometry"/>
                </mxCell>
                <mxCell id="41" value="Taker Node" style="text;html=1;align=center;verticalAlign=middle;resizable=0;points=[];autosize=1;strokeColor=none;fillColor=none;fontFamily=Helvetica;fontSize=21;fontColor=default;labelBackgroundColor=none;strokeWidth=3;fontStyle=1" parent="1" vertex="1">
                    <mxGeometry x="525" y="2550" width="130" height="40" as="geometry"/>
                </mxCell>
                <mxCell id="43" value="&lt;h1&gt;&lt;font&gt;Publisher- Subscriber Example&lt;/font&gt;&lt;/h1&gt;" style="text;html=1;align=center;verticalAlign=middle;resizable=0;points=[];autosize=1;strokeColor=none;fillColor=none;fontFamily=Helvetica;fontSize=30;fontColor=default;labelBackgroundColor=default;" parent="1" vertex="1">
                    <mxGeometry x="-195" y="2210" width="910" height="170" as="geometry"/>
                </mxCell>
                <mxCell id="44" value="Listener Node" style="text;html=1;align=center;verticalAlign=middle;resizable=0;points=[];autosize=1;strokeColor=none;fillColor=none;fontFamily=Helvetica;fontSize=21;fontColor=default;labelBackgroundColor=none;strokeWidth=3;fontStyle=1" parent="1" vertex="1">
                    <mxGeometry x="-185" y="2840" width="150" height="40" as="geometry"/>
                </mxCell>
                <mxCell id="45" value="&lt;pre&gt;{Interface_type}&lt;/pre&gt;" style="text;html=1;align=center;verticalAlign=middle;resizable=0;points=[];autosize=1;strokeColor=none;fillColor=none;fontFamily=Helvetica;fontSize=11;fontColor=default;labelBackgroundColor=default;" parent="1" vertex="1">
                    <mxGeometry x="510" y="745" width="130" height="50" as="geometry"/>
                </mxCell>
                <mxCell id="46" value="&lt;pre&gt;{Interface_type}&lt;/pre&gt;" style="text;html=1;align=center;verticalAlign=middle;resizable=0;points=[];autosize=1;strokeColor=none;fillColor=none;fontFamily=Helvetica;fontSize=11;fontColor=default;labelBackgroundColor=default;" parent="1" vertex="1">
                    <mxGeometry x="175" y="850" width="130" height="50" as="geometry"/>
                </mxCell>
                <mxCell id="47" value="&lt;pre&gt;{std_msgs/msg/string}&lt;br&gt;&lt;/pre&gt;" style="text;html=1;align=center;verticalAlign=middle;resizable=0;points=[];autosize=1;strokeColor=none;fillColor=none;fontFamily=Helvetica;fontSize=15;fontColor=default;labelBackgroundColor=default;" parent="1" vertex="1">
                    <mxGeometry x="485" y="2980" width="210" height="60" as="geometry"/>
                </mxCell>
                <mxCell id="49" value="&lt;pre&gt;{std_msgs/msg/string}&lt;br&gt;&lt;/pre&gt;" style="text;html=1;align=center;verticalAlign=middle;resizable=0;points=[];autosize=1;strokeColor=none;fillColor=none;fontFamily=Helvetica;fontSize=15;fontColor=default;labelBackgroundColor=default;" parent="1" vertex="1">
                    <mxGeometry x="155" y="3075" width="210" height="60" as="geometry"/>
                </mxCell>
                <mxCell id="50" value="" style="whiteSpace=wrap;html=1;fontFamily=Helvetica;fontSize=11;fontColor=default;labelBackgroundColor=default;movable=1;resizable=1;rotatable=1;deletable=1;editable=1;locked=0;connectable=1;" parent="1" vertex="1">
                    <mxGeometry x="-400" y="-1580" width="1450" height="1230" as="geometry"/>
                </mxCell>
                <mxCell id="52" value="" style="rounded=1;whiteSpace=wrap;html=1;fontFamily=Helvetica;fontSize=11;labelBackgroundColor=default;fillColor=#dae8fc;strokeColor=#6c8ebf;" parent="1" vertex="1">
                    <mxGeometry x="405" y="-1240" width="380" height="400" as="geometry"/>
                </mxCell>
                <mxCell id="60" value="&lt;span&gt;NODE1&amp;nbsp;&lt;/span&gt;" style="text;html=1;align=center;verticalAlign=middle;resizable=0;points=[];autosize=1;strokeColor=none;fillColor=none;fontFamily=Helvetica;fontSize=21;fontColor=default;labelBackgroundColor=none;strokeWidth=3;fontStyle=1" parent="1" vertex="1">
                    <mxGeometry x="445" y="-1220" width="100" height="40" as="geometry"/>
                </mxCell>
                <mxCell id="62" value="&lt;h1&gt;&lt;font&gt;Single Node Model&lt;/font&gt;&lt;/h1&gt;" style="text;html=1;align=center;verticalAlign=middle;resizable=0;points=[];autosize=1;strokeColor=none;fillColor=none;fontFamily=Helvetica;fontSize=30;fontColor=default;labelBackgroundColor=default;" parent="1" vertex="1">
                    <mxGeometry x="20" y="-1570" width="560" height="170" as="geometry"/>
                </mxCell>
                <mxCell id="73" value="" style="group" parent="1" vertex="1" connectable="0">
                    <mxGeometry x="-230" y="-950" width="380" height="400" as="geometry"/>
                </mxCell>
                <mxCell id="72" value="" style="rounded=1;whiteSpace=wrap;html=1;fontFamily=Helvetica;fontSize=11;labelBackgroundColor=default;fillColor=#f8cecc;strokeColor=#b85450;" parent="73" vertex="1">
                    <mxGeometry width="380" height="400" as="geometry"/>
                </mxCell>
                <mxCell id="71" value="&lt;span&gt;NODE2&amp;nbsp;&lt;/span&gt;" style="text;html=1;align=center;verticalAlign=middle;resizable=0;points=[];autosize=1;strokeColor=none;fillColor=none;fontFamily=Helvetica;fontSize=21;fontColor=default;labelBackgroundColor=none;strokeWidth=3;fontStyle=1" parent="73" vertex="1">
                    <mxGeometry x="20" y="30" width="100" height="40" as="geometry"/>
                </mxCell>
                <mxCell id="90" value="" style="whiteSpace=wrap;html=1;fontFamily=Helvetica;fontSize=11;fontColor=default;labelBackgroundColor=default;movable=1;resizable=1;rotatable=1;deletable=1;editable=1;locked=0;connectable=1;" parent="1" vertex="1">
                    <mxGeometry x="1280" y="-160" width="1930" height="1920" as="geometry"/>
                </mxCell>
                <mxCell id="99" value="/cmd_vel" style="rounded=1;whiteSpace=wrap;html=1;fillColor=#e3c800;strokeColor=#B09500;fontColor=#000000;fontSize=18;fontStyle=1" parent="1" vertex="1">
                    <mxGeometry x="2230" y="480" width="140" height="70" as="geometry"/>
                </mxCell>
                <mxCell id="102" value="&lt;h1&gt;&lt;font&gt;Multi Publisher- Subscriber Model&lt;/font&gt;&lt;/h1&gt;" style="text;html=1;align=center;verticalAlign=middle;resizable=0;points=[];autosize=1;strokeColor=none;fillColor=none;fontFamily=Helvetica;fontSize=30;fontColor=default;labelBackgroundColor=default;" parent="1" vertex="1">
                    <mxGeometry x="1765" y="-150" width="990" height="170" as="geometry"/>
                </mxCell>
                <mxCell id="112" value="" style="group" parent="1" vertex="1" connectable="0">
                    <mxGeometry x="2560" y="180" width="700" height="870" as="geometry"/>
                </mxCell>
                <mxCell id="92" value="" style="rounded=1;whiteSpace=wrap;html=1;fontFamily=Helvetica;fontSize=11;labelBackgroundColor=default;fillColor=#dae8fc;strokeColor=#6c8ebf;" parent="112" vertex="1">
                    <mxGeometry width="580" height="870" as="geometry"/>
                </mxCell>
                <mxCell id="95" value="velocity_publisher" style="ellipse;whiteSpace=wrap;html=1;fillColor=#1ba1e2;strokeColor=#006EAF;fontColor=#ffffff;fontSize=22;fontStyle=1" parent="112" vertex="1">
                    <mxGeometry x="140" y="120" width="260" height="260" as="geometry"/>
                </mxCell>
                <mxCell id="100" value="&lt;span&gt;NODE 1&lt;/span&gt;" style="text;html=1;align=center;verticalAlign=middle;resizable=0;points=[];autosize=1;strokeColor=none;fillColor=none;fontFamily=Helvetica;fontSize=21;fontColor=default;labelBackgroundColor=none;strokeWidth=3;fontStyle=1" parent="112" vertex="1">
                    <mxGeometry x="50" y="30" width="100" height="40" as="geometry"/>
                </mxCell>
                <mxCell id="110" value="pose_subscriber" style="ellipse;whiteSpace=wrap;html=1;fillColor=#f0a30a;fontColor=#000000;strokeColor=#BD7000;fontSize=22;fontStyle=1" parent="112" vertex="1">
                    <mxGeometry x="200" y="480" width="280" height="280" as="geometry"/>
                </mxCell>
                <mxCell id="113" value="" style="group" parent="1" vertex="1" connectable="0">
                    <mxGeometry x="1390" y="320" width="660" height="1060" as="geometry"/>
                </mxCell>
                <mxCell id="91" value="" style="rounded=1;whiteSpace=wrap;html=1;fontFamily=Helvetica;fontSize=11;labelBackgroundColor=default;fillColor=#f8cecc;strokeColor=#b85450;" parent="113" vertex="1">
                    <mxGeometry x="-40" width="680" height="1060" as="geometry"/>
                </mxCell>
                <mxCell id="96" value="velocity_subscriber" style="ellipse;whiteSpace=wrap;html=1;fillColor=#f0a30a;fontColor=#000000;strokeColor=#BD7000;fontSize=22;fontStyle=1" parent="113" vertex="1">
                    <mxGeometry x="260" y="150" width="262.5" height="262.5" as="geometry"/>
                </mxCell>
                <mxCell id="101" value="&lt;span&gt;NODE 2&lt;/span&gt;" style="text;html=1;align=center;verticalAlign=middle;resizable=0;points=[];autosize=1;strokeColor=none;fillColor=none;fontFamily=Helvetica;fontSize=22;fontColor=default;labelBackgroundColor=none;strokeWidth=3;fontStyle=1" parent="113" vertex="1">
                    <mxGeometry x="20" y="22.5" width="110" height="40" as="geometry"/>
                </mxCell>
                <mxCell id="106" value="pose_publisher" style="ellipse;whiteSpace=wrap;html=1;fillColor=#1ba1e2;strokeColor=#006EAF;fontColor=#ffffff;fontSize=22;fontStyle=1" parent="113" vertex="1">
                    <mxGeometry x="20" y="390" width="257.5" height="257.5" as="geometry"/>
                </mxCell>
                <mxCell id="121" value="proximity_publisher" style="ellipse;whiteSpace=wrap;html=1;fillColor=#1ba1e2;strokeColor=#006EAF;fontColor=#ffffff;fontSize=22;fontStyle=1" parent="113" vertex="1">
                    <mxGeometry x="270" y="670" width="270" height="270" as="geometry"/>
                </mxCell>
                <mxCell id="97" style="edgeStyle=orthogonalEdgeStyle;html=1;entryX=1;entryY=0.5;entryDx=0;entryDy=0;curved=1;" parent="1" source="99" target="96" edge="1">
                    <mxGeometry relative="1" as="geometry"/>
                </mxCell>
                <mxCell id="98" value="vel_msg" style="edgeLabel;html=1;align=center;verticalAlign=middle;resizable=0;points=[];fontFamily=Helvetica;fontSize=20;fontColor=default;labelBackgroundColor=default;" parent="97" vertex="1" connectable="0">
                    <mxGeometry x="-0.1433" y="13" relative="1" as="geometry">
                        <mxPoint x="48" y="-9" as="offset"/>
                    </mxGeometry>
                </mxCell>
                <mxCell id="93" style="edgeStyle=orthogonalEdgeStyle;html=1;exitX=0;exitY=0.5;exitDx=0;exitDy=0;entryX=1;entryY=0.5;entryDx=0;entryDy=0;curved=1;" parent="1" source="95" target="99" edge="1">
                    <mxGeometry relative="1" as="geometry"/>
                </mxCell>
                <mxCell id="94" value="vel_msg" style="edgeLabel;html=1;align=center;verticalAlign=middle;resizable=0;points=[];fontFamily=Helvetica;fontSize=20;fontColor=default;labelBackgroundColor=default;" parent="93" vertex="1" connectable="0">
                    <mxGeometry x="0.1697" y="-1" relative="1" as="geometry">
                        <mxPoint x="-31" y="-12" as="offset"/>
                    </mxGeometry>
                </mxCell>
                <mxCell id="118" style="edgeStyle=orthogonalEdgeStyle;html=1;exitX=1;exitY=0.5;exitDx=0;exitDy=0;entryX=0;entryY=0.5;entryDx=0;entryDy=0;curved=1;" parent="1" source="116" target="110" edge="1">
                    <mxGeometry relative="1" as="geometry"/>
                </mxCell>
                <mxCell id="120" value="pose_msg" style="edgeLabel;html=1;align=center;verticalAlign=middle;resizable=0;points=[];fontSize=20;" parent="118" vertex="1" connectable="0">
                    <mxGeometry x="-0.4103" y="10" relative="1" as="geometry">
                        <mxPoint x="-54" y="10" as="offset"/>
                    </mxGeometry>
                </mxCell>
                <mxCell id="116" value="/robot_pose" style="rounded=1;whiteSpace=wrap;html=1;fillColor=#e3c800;strokeColor=#B09500;fontColor=#000000;fontSize=18;fontStyle=1" parent="1" vertex="1">
                    <mxGeometry x="2200" y="880" width="140" height="70" as="geometry"/>
                </mxCell>
                <mxCell id="117" style="edgeStyle=orthogonalEdgeStyle;html=1;entryX=0;entryY=0.5;entryDx=0;entryDy=0;curved=1;" parent="1" source="106" target="116" edge="1">
                    <mxGeometry relative="1" as="geometry"/>
                </mxCell>
                <mxCell id="119" value="pos_msg" style="edgeLabel;html=1;align=center;verticalAlign=middle;resizable=0;points=[];fontSize=20;" parent="117" vertex="1" connectable="0">
                    <mxGeometry x="0.3404" y="-9" relative="1" as="geometry">
                        <mxPoint x="111" y="-9" as="offset"/>
                    </mxGeometry>
                </mxCell>
                <mxCell id="122" value="/prox_data" style="rounded=1;whiteSpace=wrap;html=1;fillColor=#e3c800;strokeColor=#B09500;fontColor=#000000;fontSize=18;fontStyle=1" parent="1" vertex="1">
                    <mxGeometry x="2370" y="1190" width="140" height="70" as="geometry"/>
                </mxCell>
                <mxCell id="123" style="edgeStyle=orthogonalEdgeStyle;html=1;exitX=1;exitY=0.5;exitDx=0;exitDy=0;entryX=0;entryY=0.5;entryDx=0;entryDy=0;curved=1;" parent="1" source="121" target="122" edge="1">
                    <mxGeometry relative="1" as="geometry"/>
                </mxCell>
                <mxCell id="124" value="sensor_msg" style="edgeLabel;html=1;align=center;verticalAlign=middle;resizable=0;points=[];fontSize=20;" parent="123" vertex="1" connectable="0">
                    <mxGeometry x="0.3871" y="7" relative="1" as="geometry">
                        <mxPoint x="18" y="-8" as="offset"/>
                    </mxGeometry>
                </mxCell>
                <mxCell id="125" value="" style="whiteSpace=wrap;html=1;fontFamily=Helvetica;fontSize=11;fontColor=default;labelBackgroundColor=default;movable=1;resizable=1;rotatable=1;deletable=1;editable=1;locked=0;connectable=1;" parent="1" vertex="1">
                    <mxGeometry x="3510" y="-130" width="2050" height="1920" as="geometry"/>
                </mxCell>
                <mxCell id="126" value="/turtle1/cmd_vel" style="rounded=1;whiteSpace=wrap;html=1;fillColor=#e3c800;strokeColor=#B09500;fontColor=#000000;fontSize=18;fontStyle=1" parent="1" vertex="1">
                    <mxGeometry x="4490" y="480" width="180" height="70" as="geometry"/>
                </mxCell>
                <mxCell id="127" value="&lt;h1&gt;&lt;font&gt;Turtlesim in Publisher- Subscriber Model&lt;/font&gt;&lt;/h1&gt;" style="text;html=1;align=center;verticalAlign=middle;resizable=0;points=[];autosize=1;strokeColor=none;fillColor=none;fontFamily=Helvetica;fontSize=30;fontColor=default;labelBackgroundColor=default;" parent="1" vertex="1">
                    <mxGeometry x="3895" y="-120" width="1190" height="170" as="geometry"/>
                </mxCell>
                <mxCell id="128" value="" style="group" parent="1" vertex="1" connectable="0">
                    <mxGeometry x="4880" y="600" width="700" height="870" as="geometry"/>
                </mxCell>
                <mxCell id="129" value="" style="rounded=1;whiteSpace=wrap;html=1;fontFamily=Helvetica;fontSize=11;labelBackgroundColor=default;fillColor=#dae8fc;strokeColor=#6c8ebf;" parent="128" vertex="1">
                    <mxGeometry x="60" y="-20" width="580" height="500" as="geometry"/>
                </mxCell>
                <mxCell id="130" value="velocity_publisher" style="ellipse;whiteSpace=wrap;html=1;fillColor=#1ba1e2;strokeColor=#006EAF;fontColor=#ffffff;fontSize=22;fontStyle=1" parent="128" vertex="1">
                    <mxGeometry x="185" y="110" width="260" height="260" as="geometry"/>
                </mxCell>
                <mxCell id="152" value="&lt;pre style=&quot;box-sizing: border-box; line-height: 1.4; font-family: SFMono-Regular, Menlo, Monaco, Consolas, &amp;quot;Liberation Mono&amp;quot;, &amp;quot;Courier New&amp;quot;, Courier, monospace; margin-top: 0px; margin-bottom: 0px; padding: 12px; overflow: auto; color: rgb(64, 64, 64); text-align: start;&quot; id=&quot;codecell1&quot;&gt;turtle_teleop_key&lt;/pre&gt;" style="text;html=1;align=center;verticalAlign=middle;resizable=0;points=[];autosize=1;strokeColor=none;fillColor=none;fontFamily=Helvetica;fontSize=21;fontColor=default;fontStyle=1;labelBackgroundColor=none;" parent="128" vertex="1">
                    <mxGeometry x="90" y="10" width="260" height="70" as="geometry"/>
                </mxCell>
                <mxCell id="133" value="" style="group" parent="1" vertex="1" connectable="0">
                    <mxGeometry x="3620" y="350" width="660" height="1060" as="geometry"/>
                </mxCell>
                <mxCell id="134" value="" style="rounded=1;whiteSpace=wrap;html=1;fontFamily=Helvetica;fontSize=11;labelBackgroundColor=default;fillColor=#f8cecc;strokeColor=#b85450;" parent="133" vertex="1">
                    <mxGeometry x="-40" width="680" height="1060" as="geometry"/>
                </mxCell>
                <mxCell id="135" value="velocity_subscriber" style="ellipse;whiteSpace=wrap;html=1;fillColor=#f0a30a;fontColor=#000000;strokeColor=#BD7000;fontSize=22;fontStyle=1" parent="133" vertex="1">
                    <mxGeometry x="260" y="150" width="262.5" height="262.5" as="geometry"/>
                </mxCell>
                <mxCell id="137" value="pose_publisher" style="ellipse;whiteSpace=wrap;html=1;fillColor=#1ba1e2;strokeColor=#006EAF;fontColor=#ffffff;fontSize=22;fontStyle=1" parent="133" vertex="1">
                    <mxGeometry x="20" y="390" width="257.5" height="257.5" as="geometry"/>
                </mxCell>
                <mxCell id="138" value="color_sensor_publisher" style="ellipse;whiteSpace=wrap;html=1;fillColor=#1ba1e2;strokeColor=#006EAF;fontColor=#ffffff;fontSize=22;fontStyle=1" parent="133" vertex="1">
                    <mxGeometry x="270" y="670" width="270" height="270" as="geometry"/>
                </mxCell>
                <mxCell id="151" value="&lt;pre style=&quot;box-sizing: border-box; line-height: 1.4; font-family: SFMono-Regular, Menlo, Monaco, Consolas, &amp;quot;Liberation Mono&amp;quot;, &amp;quot;Courier New&amp;quot;, Courier, monospace; margin-top: 0px; margin-bottom: 0px; padding: 12px; overflow: auto; color: rgb(64, 64, 64); text-align: start;&quot; id=&quot;codecell1&quot;&gt;turtlesim_node&lt;/pre&gt;" style="text;html=1;align=center;verticalAlign=middle;resizable=0;points=[];autosize=1;strokeColor=none;fillColor=none;fontFamily=Helvetica;fontSize=21;fontColor=default;fontStyle=1;labelBackgroundColor=none;" parent="133" vertex="1">
                    <mxGeometry x="40" y="30" width="150" height="50" as="geometry"/>
                </mxCell>
                <mxCell id="139" style="edgeStyle=orthogonalEdgeStyle;html=1;entryX=1;entryY=0.5;entryDx=0;entryDy=0;curved=1;" parent="1" source="126" target="135" edge="1">
                    <mxGeometry relative="1" as="geometry"/>
                </mxCell>
                <mxCell id="140" value="geometry_msgs/msg/Twist" style="edgeLabel;html=1;align=center;verticalAlign=middle;resizable=0;points=[];fontFamily=Helvetica;fontSize=20;fontColor=default;labelBackgroundColor=default;" parent="139" vertex="1" connectable="0">
                    <mxGeometry x="-0.1433" y="13" relative="1" as="geometry">
                        <mxPoint x="6" y="42" as="offset"/>
                    </mxGeometry>
                </mxCell>
                <mxCell id="141" style="edgeStyle=orthogonalEdgeStyle;html=1;exitX=0;exitY=0.5;exitDx=0;exitDy=0;entryX=1;entryY=0.5;entryDx=0;entryDy=0;curved=1;" parent="1" source="130" target="126" edge="1">
                    <mxGeometry relative="1" as="geometry"/>
                </mxCell>
                <mxCell id="142" value="geometry_msgs/msg/Twist" style="edgeLabel;html=1;align=center;verticalAlign=middle;resizable=0;points=[];fontFamily=Helvetica;fontSize=20;fontColor=default;labelBackgroundColor=default;" parent="141" vertex="1" connectable="0">
                    <mxGeometry x="0.1697" y="-1" relative="1" as="geometry">
                        <mxPoint x="-54" as="offset"/>
                    </mxGeometry>
                </mxCell>
                <mxCell id="145" value="/turtle1/pose" style="rounded=1;whiteSpace=wrap;html=1;fillColor=#e3c800;strokeColor=#B09500;fontColor=#000000;fontSize=18;fontStyle=1" parent="1" vertex="1">
                    <mxGeometry x="4560" y="910" width="190" height="70" as="geometry"/>
                </mxCell>
                <mxCell id="146" style="edgeStyle=orthogonalEdgeStyle;html=1;entryX=0;entryY=0.5;entryDx=0;entryDy=0;curved=1;" parent="1" source="137" target="145" edge="1">
                    <mxGeometry relative="1" as="geometry"/>
                </mxCell>
                <mxCell id="147" value="turtlesim/msg/Pose" style="edgeLabel;html=1;align=center;verticalAlign=middle;resizable=0;points=[];fontSize=20;" parent="146" vertex="1" connectable="0">
                    <mxGeometry x="0.3404" y="-9" relative="1" as="geometry">
                        <mxPoint x="111" y="-9" as="offset"/>
                    </mxGeometry>
                </mxCell>
                <mxCell id="148" value="/turtle1/color_sensor" style="rounded=1;whiteSpace=wrap;html=1;fillColor=#e3c800;strokeColor=#B09500;fontColor=#000000;fontSize=18;fontStyle=1" parent="1" vertex="1">
                    <mxGeometry x="4600" y="1220" width="240" height="70" as="geometry"/>
                </mxCell>
                <mxCell id="149" style="edgeStyle=orthogonalEdgeStyle;html=1;exitX=1;exitY=0.5;exitDx=0;exitDy=0;entryX=0;entryY=0.5;entryDx=0;entryDy=0;curved=1;" parent="1" source="138" target="148" edge="1">
                    <mxGeometry relative="1" as="geometry"/>
                </mxCell>
                <mxCell id="150" value="turtlesim/msg/Color" style="edgeLabel;html=1;align=center;verticalAlign=middle;resizable=0;points=[];fontSize=20;" parent="149" vertex="1" connectable="0">
                    <mxGeometry x="0.3871" y="7" relative="1" as="geometry">
                        <mxPoint x="18" y="-8" as="offset"/>
                    </mxGeometry>
                </mxCell>
            </root>
        </mxGraphModel>
    </diagram>
    <diagram name="2-Services" id="u6Zi9MRjnmSfeWyxMeOA">
        <mxGraphModel dx="1783" dy="1574" grid="1" gridSize="10" guides="1" tooltips="1" connect="1" arrows="1" fold="1" page="1" pageScale="1" pageWidth="850" pageHeight="1100" math="0" shadow="0">
            <root>
                <mxCell id="7trJmH735Tpelf56GsNn-0"/>
                <mxCell id="7trJmH735Tpelf56GsNn-1" parent="7trJmH735Tpelf56GsNn-0"/>
                <mxCell id="7trJmH735Tpelf56GsNn-2" value="" style="whiteSpace=wrap;html=1;fontFamily=Helvetica;fontSize=11;fontColor=default;labelBackgroundColor=default;movable=1;resizable=1;rotatable=1;deletable=1;editable=1;locked=0;connectable=1;" parent="7trJmH735Tpelf56GsNn-1" vertex="1">
                    <mxGeometry x="-630" y="-10" width="1780" height="1360" as="geometry"/>
                </mxCell>
                <mxCell id="7trJmH735Tpelf56GsNn-3" value="" style="rounded=1;whiteSpace=wrap;html=1;fontFamily=Helvetica;fontSize=11;labelBackgroundColor=default;fillColor=#f8cecc;strokeColor=#b85450;" parent="7trJmH735Tpelf56GsNn-1" vertex="1">
                    <mxGeometry x="-400" y="660" width="380" height="400" as="geometry"/>
                </mxCell>
                <mxCell id="7trJmH735Tpelf56GsNn-4" value="" style="rounded=1;whiteSpace=wrap;html=1;fontFamily=Helvetica;fontSize=11;labelBackgroundColor=default;fillColor=#dae8fc;strokeColor=#6c8ebf;" parent="7trJmH735Tpelf56GsNn-1" vertex="1">
                    <mxGeometry x="580" y="330" width="380" height="400" as="geometry"/>
                </mxCell>
                <mxCell id="7trJmH735Tpelf56GsNn-7" value="Service&lt;br&gt;Server" style="ellipse;whiteSpace=wrap;html=1;fillColor=#1ba1e2;strokeColor=#006EAF;fontColor=#ffffff;fontSize=16;fontStyle=1" parent="7trJmH735Tpelf56GsNn-1" vertex="1">
                    <mxGeometry x="655" y="410" width="200" height="200" as="geometry"/>
                </mxCell>
                <mxCell id="7trJmH735Tpelf56GsNn-8" value="Service&lt;br&gt;Client" style="ellipse;whiteSpace=wrap;html=1;fillColor=#f0a30a;fontColor=#000000;strokeColor=#BD7000;fontSize=16;" parent="7trJmH735Tpelf56GsNn-1" vertex="1">
                    <mxGeometry x="-270" y="780" width="185" height="185" as="geometry"/>
                </mxCell>
                <mxCell id="7trJmH735Tpelf56GsNn-11" value="" style="rounded=1;whiteSpace=wrap;html=1;fillColor=#e3c800;strokeColor=#B09500;fontColor=#000000;" parent="7trJmH735Tpelf56GsNn-1" vertex="1">
                    <mxGeometry x="207.5" y="615" width="235" height="255" as="geometry"/>
                </mxCell>
                <mxCell id="7trJmH735Tpelf56GsNn-12" value="&lt;span&gt;NODE 1&lt;/span&gt;" style="text;html=1;align=center;verticalAlign=middle;resizable=0;points=[];autosize=1;strokeColor=none;fillColor=none;fontFamily=Helvetica;fontSize=21;fontColor=default;labelBackgroundColor=none;strokeWidth=3;fontStyle=1" parent="7trJmH735Tpelf56GsNn-1" vertex="1">
                    <mxGeometry x="615" y="350" width="100" height="40" as="geometry"/>
                </mxCell>
                <mxCell id="7trJmH735Tpelf56GsNn-13" value="&lt;span&gt;NODE 2&lt;/span&gt;" style="text;html=1;align=center;verticalAlign=middle;resizable=0;points=[];autosize=1;strokeColor=none;fillColor=none;fontFamily=Helvetica;fontSize=21;fontColor=default;labelBackgroundColor=none;strokeWidth=3;fontStyle=1" parent="7trJmH735Tpelf56GsNn-1" vertex="1">
                    <mxGeometry x="-370" y="680" width="100" height="40" as="geometry"/>
                </mxCell>
                <mxCell id="7trJmH735Tpelf56GsNn-14" value="&lt;h1&gt;&lt;font&gt;Server- Client Model&lt;/font&gt;&lt;/h1&gt;" style="text;html=1;align=center;verticalAlign=middle;resizable=0;points=[];autosize=1;strokeColor=none;fillColor=none;fontFamily=Helvetica;fontSize=30;fontColor=default;labelBackgroundColor=default;" parent="7trJmH735Tpelf56GsNn-1" vertex="1">
                    <mxGeometry x="-10" width="600" height="170" as="geometry"/>
                </mxCell>
                <mxCell id="7trJmH735Tpelf56GsNn-28" value="&lt;pre&gt;{Interface_type}&lt;/pre&gt;" style="text;html=1;align=center;verticalAlign=middle;resizable=0;points=[];autosize=1;strokeColor=none;fillColor=none;fontFamily=Helvetica;fontSize=11;fontColor=default;labelBackgroundColor=default;" parent="7trJmH735Tpelf56GsNn-1" vertex="1">
                    <mxGeometry x="485" y="740" width="130" height="50" as="geometry"/>
                </mxCell>
                <mxCell id="7trJmH735Tpelf56GsNn-29" value="&lt;pre&gt;{Interface_type}&lt;/pre&gt;" style="text;html=1;align=center;verticalAlign=middle;resizable=0;points=[];autosize=1;strokeColor=none;fillColor=none;fontFamily=Helvetica;fontSize=11;fontColor=default;labelBackgroundColor=default;" parent="7trJmH735Tpelf56GsNn-1" vertex="1">
                    <mxGeometry x="415" y="410" width="130" height="50" as="geometry"/>
                </mxCell>
                <mxCell id="jk82i36turT7LHC97Zau-0" value="Request" style="rounded=1;whiteSpace=wrap;html=1;fillColor=#76608a;fontColor=#ffffff;strokeColor=#432D57;" parent="7trJmH735Tpelf56GsNn-1" vertex="1">
                    <mxGeometry x="265" y="670" width="120" height="60" as="geometry"/>
                </mxCell>
                <mxCell id="jk82i36turT7LHC97Zau-2" value="Service" style="text;html=1;align=center;verticalAlign=middle;resizable=0;points=[];autosize=1;strokeColor=none;fillColor=none;fontSize=19;" parent="7trJmH735Tpelf56GsNn-1" vertex="1">
                    <mxGeometry x="290" y="615" width="90" height="40" as="geometry"/>
                </mxCell>
                <mxCell id="7trJmH735Tpelf56GsNn-5" style="edgeStyle=orthogonalEdgeStyle;html=1;entryX=1;entryY=0.5;entryDx=0;entryDy=0;curved=1;exitX=0;exitY=0;exitDx=0;exitDy=0;" parent="7trJmH735Tpelf56GsNn-1" source="7trJmH735Tpelf56GsNn-7" target="jk82i36turT7LHC97Zau-0" edge="1">
                    <mxGeometry relative="1" as="geometry">
                        <mxPoint x="655" y="510" as="sourcePoint"/>
                        <Array as="points">
                            <mxPoint x="440" y="439"/>
                            <mxPoint x="440" y="700"/>
                        </Array>
                    </mxGeometry>
                </mxCell>
                <mxCell id="7trJmH735Tpelf56GsNn-6" value="request_msg" style="edgeLabel;html=1;align=center;verticalAlign=middle;resizable=0;points=[];fontFamily=Helvetica;fontSize=15;fontColor=default;labelBackgroundColor=default;" parent="7trJmH735Tpelf56GsNn-5" vertex="1" connectable="0">
                    <mxGeometry x="0.1697" y="-1" relative="1" as="geometry">
                        <mxPoint x="56" y="-42" as="offset"/>
                    </mxGeometry>
                </mxCell>
                <mxCell id="7trJmH735Tpelf56GsNn-9" style="edgeStyle=orthogonalEdgeStyle;html=1;entryX=1;entryY=0;entryDx=0;entryDy=0;curved=1;exitX=0;exitY=0.5;exitDx=0;exitDy=0;" parent="7trJmH735Tpelf56GsNn-1" source="jk82i36turT7LHC97Zau-0" target="7trJmH735Tpelf56GsNn-8" edge="1">
                    <mxGeometry relative="1" as="geometry">
                        <Array as="points">
                            <mxPoint y="700"/>
                            <mxPoint y="807"/>
                        </Array>
                    </mxGeometry>
                </mxCell>
                <mxCell id="7trJmH735Tpelf56GsNn-10" value="&lt;span style=&quot;color: rgb(0, 0, 0); font-size: 15px;&quot;&gt;request_msg&lt;/span&gt;" style="edgeLabel;html=1;align=center;verticalAlign=middle;resizable=0;points=[];fontFamily=Helvetica;fontSize=16;fontColor=default;labelBackgroundColor=default;" parent="7trJmH735Tpelf56GsNn-9" vertex="1" connectable="0">
                    <mxGeometry x="-0.1433" y="13" relative="1" as="geometry">
                        <mxPoint as="offset"/>
                    </mxGeometry>
                </mxCell>
                <mxCell id="jk82i36turT7LHC97Zau-5" style="edgeStyle=orthogonalEdgeStyle;html=1;exitX=1;exitY=0.5;exitDx=0;exitDy=0;entryX=0;entryY=1;entryDx=0;entryDy=0;curved=1;" parent="7trJmH735Tpelf56GsNn-1" source="jk82i36turT7LHC97Zau-3" target="7trJmH735Tpelf56GsNn-7" edge="1">
                    <mxGeometry relative="1" as="geometry">
                        <Array as="points">
                            <mxPoint x="440" y="810"/>
                            <mxPoint x="440" y="720"/>
                            <mxPoint x="684" y="720"/>
                        </Array>
                    </mxGeometry>
                </mxCell>
                <mxCell id="jk82i36turT7LHC97Zau-6" value="response_msg" style="edgeLabel;html=1;align=center;verticalAlign=middle;resizable=0;points=[];fontFamily=Helvetica;fontSize=15;fontColor=default;labelBackgroundColor=default;fillColor=none;gradientColor=none;" parent="jk82i36turT7LHC97Zau-5" vertex="1" connectable="0">
                    <mxGeometry x="0.0012" y="6" relative="1" as="geometry">
                        <mxPoint x="-35" y="6" as="offset"/>
                    </mxGeometry>
                </mxCell>
                <mxCell id="jk82i36turT7LHC97Zau-3" value="Response" style="rounded=1;whiteSpace=wrap;html=1;fillColor=#76608a;fontColor=#ffffff;strokeColor=#432D57;" parent="7trJmH735Tpelf56GsNn-1" vertex="1">
                    <mxGeometry x="265" y="780" width="120" height="60" as="geometry"/>
                </mxCell>
                <mxCell id="jk82i36turT7LHC97Zau-4" style="edgeStyle=orthogonalEdgeStyle;html=1;exitX=1;exitY=1;exitDx=0;exitDy=0;entryX=0;entryY=0.5;entryDx=0;entryDy=0;curved=1;" parent="7trJmH735Tpelf56GsNn-1" source="7trJmH735Tpelf56GsNn-8" target="jk82i36turT7LHC97Zau-3" edge="1">
                    <mxGeometry relative="1" as="geometry"/>
                </mxCell>
                <mxCell id="jk82i36turT7LHC97Zau-7" value="&lt;span style=&quot;color: rgb(0, 0, 0); font-size: 15px;&quot;&gt;response_msg&lt;/span&gt;" style="edgeLabel;html=1;align=center;verticalAlign=middle;resizable=0;points=[];" parent="jk82i36turT7LHC97Zau-4" vertex="1" connectable="0">
                    <mxGeometry x="0.1202" y="-1" relative="1" as="geometry">
                        <mxPoint y="1" as="offset"/>
                    </mxGeometry>
                </mxCell>
                <mxCell id="JqvngfZ4Gw1TeKTyGAZd-0" value="" style="whiteSpace=wrap;html=1;fontFamily=Helvetica;fontSize=11;fontColor=default;labelBackgroundColor=default;movable=1;resizable=1;rotatable=1;deletable=1;editable=1;locked=0;connectable=1;" parent="7trJmH735Tpelf56GsNn-1" vertex="1">
                    <mxGeometry x="1310" y="-500" width="3730" height="2530" as="geometry"/>
                </mxCell>
                <mxCell id="JqvngfZ4Gw1TeKTyGAZd-1" value="" style="rounded=1;whiteSpace=wrap;html=1;fontFamily=Helvetica;fontSize=11;labelBackgroundColor=default;fillColor=#f8cecc;strokeColor=#b85450;" parent="7trJmH735Tpelf56GsNn-1" vertex="1">
                    <mxGeometry x="2040" y="100" width="640" height="590" as="geometry"/>
                </mxCell>
                <mxCell id="JqvngfZ4Gw1TeKTyGAZd-2" value="" style="rounded=1;whiteSpace=wrap;html=1;fontFamily=Helvetica;fontSize=11;labelBackgroundColor=default;fillColor=#dae8fc;strokeColor=#6c8ebf;" parent="7trJmH735Tpelf56GsNn-1" vertex="1">
                    <mxGeometry x="3580" y="160" width="820" height="950" as="geometry"/>
                </mxCell>
                <mxCell id="JqvngfZ4Gw1TeKTyGAZd-3" value="Service1&lt;br&gt;Server" style="ellipse;whiteSpace=wrap;html=1;fillColor=#1ba1e2;strokeColor=#006EAF;fontColor=#ffffff;fontSize=30;fontStyle=1" parent="7trJmH735Tpelf56GsNn-1" vertex="1">
                    <mxGeometry x="3860" y="300" width="280" height="280" as="geometry"/>
                </mxCell>
                <mxCell id="JqvngfZ4Gw1TeKTyGAZd-4" value="Service1&lt;br&gt;Client" style="ellipse;whiteSpace=wrap;html=1;fillColor=#f0a30a;fontColor=#000000;strokeColor=#BD7000;fontSize=30;fontStyle=1" parent="7trJmH735Tpelf56GsNn-1" vertex="1">
                    <mxGeometry x="2195" y="285" width="255" height="255" as="geometry"/>
                </mxCell>
                <mxCell id="JqvngfZ4Gw1TeKTyGAZd-6" value="&lt;span&gt;NODE 1&lt;/span&gt;" style="text;html=1;align=center;verticalAlign=middle;resizable=0;points=[];autosize=1;strokeColor=none;fillColor=none;fontFamily=Helvetica;fontSize=40;fontColor=default;labelBackgroundColor=none;strokeWidth=3;fontStyle=1;" parent="7trJmH735Tpelf56GsNn-1" vertex="1">
                    <mxGeometry x="4200" y="210" width="100" height="40" as="geometry"/>
                </mxCell>
                <mxCell id="JqvngfZ4Gw1TeKTyGAZd-7" value="&lt;span&gt;NODE 2&lt;/span&gt;" style="text;html=1;align=center;verticalAlign=middle;resizable=0;points=[];autosize=1;strokeColor=none;fillColor=none;fontFamily=Helvetica;fontSize=40;fontColor=default;labelBackgroundColor=none;strokeWidth=3;fontStyle=1" parent="7trJmH735Tpelf56GsNn-1" vertex="1">
                    <mxGeometry x="2080" y="120" width="170" height="60" as="geometry"/>
                </mxCell>
                <mxCell id="JqvngfZ4Gw1TeKTyGAZd-8" value="&lt;h1&gt;&lt;font&gt;Multi Server- Client Model&lt;/font&gt;&lt;/h1&gt;" style="text;html=1;align=center;verticalAlign=middle;resizable=0;points=[];autosize=1;strokeColor=none;fillColor=none;fontFamily=Helvetica;fontSize=30;fontColor=default;labelBackgroundColor=default;" parent="7trJmH735Tpelf56GsNn-1" vertex="1">
                    <mxGeometry x="2860" y="-490" width="760" height="170" as="geometry"/>
                </mxCell>
                <mxCell id="JqvngfZ4Gw1TeKTyGAZd-22" value="Service2&lt;br&gt;Server" style="ellipse;whiteSpace=wrap;html=1;fillColor=#1ba1e2;strokeColor=#006EAF;fontColor=#ffffff;fontSize=30;fontStyle=1" parent="7trJmH735Tpelf56GsNn-1" vertex="1">
                    <mxGeometry x="3895" y="750" width="280" height="280" as="geometry"/>
                </mxCell>
                <mxCell id="JqvngfZ4Gw1TeKTyGAZd-28" value="" style="rounded=1;whiteSpace=wrap;html=1;fontFamily=Helvetica;fontSize=11;labelBackgroundColor=default;fillColor=#f8cecc;strokeColor=#b85450;" parent="7trJmH735Tpelf56GsNn-1" vertex="1">
                    <mxGeometry x="2040" y="955" width="640" height="590" as="geometry"/>
                </mxCell>
                <mxCell id="JqvngfZ4Gw1TeKTyGAZd-29" value="Service2&lt;br&gt;Client" style="ellipse;whiteSpace=wrap;html=1;fillColor=#f0a30a;fontColor=#000000;strokeColor=#BD7000;fontSize=30;fontStyle=1" parent="7trJmH735Tpelf56GsNn-1" vertex="1">
                    <mxGeometry x="2230" y="1160" width="260" height="260" as="geometry"/>
                </mxCell>
                <mxCell id="JqvngfZ4Gw1TeKTyGAZd-30" value="&lt;span&gt;NODE 3&lt;/span&gt;" style="text;html=1;align=center;verticalAlign=middle;resizable=0;points=[];autosize=1;strokeColor=none;fillColor=none;fontFamily=Helvetica;fontSize=40;fontColor=default;labelBackgroundColor=none;strokeWidth=3;fontStyle=1" parent="7trJmH735Tpelf56GsNn-1" vertex="1">
                    <mxGeometry x="2080" y="980" width="170" height="60" as="geometry"/>
                </mxCell>
                <mxCell id="JqvngfZ4Gw1TeKTyGAZd-40" value="" style="group" parent="7trJmH735Tpelf56GsNn-1" vertex="1" connectable="0">
                    <mxGeometry x="3020" y="465" width="235" height="255" as="geometry"/>
                </mxCell>
                <mxCell id="JqvngfZ4Gw1TeKTyGAZd-5" value="" style="rounded=1;whiteSpace=wrap;html=1;fillColor=#e3c800;strokeColor=#B09500;fontColor=#000000;fontSize=20;fontStyle=1" parent="JqvngfZ4Gw1TeKTyGAZd-40" vertex="1">
                    <mxGeometry width="235" height="255" as="geometry"/>
                </mxCell>
                <mxCell id="JqvngfZ4Gw1TeKTyGAZd-11" value="Request" style="rounded=1;whiteSpace=wrap;html=1;fillColor=#76608a;fontColor=#ffffff;strokeColor=#432D57;fontSize=20;fontStyle=1" parent="JqvngfZ4Gw1TeKTyGAZd-40" vertex="1">
                    <mxGeometry x="57.5" y="55" width="120" height="60" as="geometry"/>
                </mxCell>
                <mxCell id="JqvngfZ4Gw1TeKTyGAZd-12" value="Service1" style="text;html=1;align=center;verticalAlign=middle;resizable=0;points=[];autosize=1;strokeColor=none;fillColor=none;fontSize=20;fontStyle=1" parent="JqvngfZ4Gw1TeKTyGAZd-40" vertex="1">
                    <mxGeometry x="67.5" width="100" height="40" as="geometry"/>
                </mxCell>
                <mxCell id="JqvngfZ4Gw1TeKTyGAZd-19" value="Response" style="rounded=1;whiteSpace=wrap;html=1;fillColor=#76608a;fontColor=#ffffff;strokeColor=#432D57;fontSize=20;fontStyle=1" parent="JqvngfZ4Gw1TeKTyGAZd-40" vertex="1">
                    <mxGeometry x="57.5" y="165" width="120" height="60" as="geometry"/>
                </mxCell>
                <mxCell id="JqvngfZ4Gw1TeKTyGAZd-20" style="edgeStyle=orthogonalEdgeStyle;html=1;exitX=1;exitY=1;exitDx=0;exitDy=0;entryX=0;entryY=0.5;entryDx=0;entryDy=0;curved=1;" parent="7trJmH735Tpelf56GsNn-1" source="JqvngfZ4Gw1TeKTyGAZd-4" target="JqvngfZ4Gw1TeKTyGAZd-19" edge="1">
                    <mxGeometry relative="1" as="geometry"/>
                </mxCell>
                <mxCell id="JqvngfZ4Gw1TeKTyGAZd-21" value="&lt;span style=&quot;color: rgb(0, 0, 0);&quot;&gt;response_msg&lt;/span&gt;" style="edgeLabel;html=1;align=center;verticalAlign=middle;resizable=0;points=[];fontSize=20;fontStyle=1" parent="JqvngfZ4Gw1TeKTyGAZd-20" vertex="1" connectable="0">
                    <mxGeometry x="0.1202" y="-1" relative="1" as="geometry">
                        <mxPoint y="1" as="offset"/>
                    </mxGeometry>
                </mxCell>
                <mxCell id="JqvngfZ4Gw1TeKTyGAZd-41" value="" style="group" parent="7trJmH735Tpelf56GsNn-1" vertex="1" connectable="0">
                    <mxGeometry x="2980" y="960" width="235" height="255" as="geometry"/>
                </mxCell>
                <mxCell id="JqvngfZ4Gw1TeKTyGAZd-24" value="" style="rounded=1;whiteSpace=wrap;html=1;fillColor=#e3c800;strokeColor=#B09500;fontColor=#000000;fontSize=20;fontStyle=1" parent="JqvngfZ4Gw1TeKTyGAZd-41" vertex="1">
                    <mxGeometry width="235" height="255" as="geometry"/>
                </mxCell>
                <mxCell id="JqvngfZ4Gw1TeKTyGAZd-25" value="Request" style="rounded=1;whiteSpace=wrap;html=1;fillColor=#76608a;fontColor=#ffffff;strokeColor=#432D57;fontSize=20;fontStyle=1" parent="JqvngfZ4Gw1TeKTyGAZd-41" vertex="1">
                    <mxGeometry x="57.5" y="55" width="120" height="60" as="geometry"/>
                </mxCell>
                <mxCell id="JqvngfZ4Gw1TeKTyGAZd-26" value="Service2" style="text;html=1;align=center;verticalAlign=middle;resizable=0;points=[];autosize=1;strokeColor=none;fillColor=none;fontSize=20;fontStyle=1" parent="JqvngfZ4Gw1TeKTyGAZd-41" vertex="1">
                    <mxGeometry x="67.5" width="100" height="40" as="geometry"/>
                </mxCell>
                <mxCell id="JqvngfZ4Gw1TeKTyGAZd-27" value="Response" style="rounded=1;whiteSpace=wrap;html=1;fillColor=#76608a;fontColor=#ffffff;strokeColor=#432D57;fontSize=20;fontStyle=1" parent="JqvngfZ4Gw1TeKTyGAZd-41" vertex="1">
                    <mxGeometry x="57.5" y="165" width="120" height="60" as="geometry"/>
                </mxCell>
                <mxCell id="JqvngfZ4Gw1TeKTyGAZd-15" style="edgeStyle=orthogonalEdgeStyle;html=1;entryX=1;entryY=0;entryDx=0;entryDy=0;curved=1;exitX=0;exitY=0.5;exitDx=0;exitDy=0;" parent="7trJmH735Tpelf56GsNn-1" source="JqvngfZ4Gw1TeKTyGAZd-11" target="JqvngfZ4Gw1TeKTyGAZd-4" edge="1">
                    <mxGeometry relative="1" as="geometry">
                        <Array as="points">
                            <mxPoint x="2920" y="550"/>
                            <mxPoint x="2920" y="322"/>
                        </Array>
                    </mxGeometry>
                </mxCell>
                <mxCell id="JqvngfZ4Gw1TeKTyGAZd-16" value="&lt;span style=&quot;color: rgb(0, 0, 0);&quot;&gt;request_msg&lt;/span&gt;" style="edgeLabel;html=1;align=center;verticalAlign=middle;resizable=0;points=[];fontFamily=Helvetica;fontSize=20;fontColor=default;labelBackgroundColor=default;fontStyle=1" parent="JqvngfZ4Gw1TeKTyGAZd-15" vertex="1" connectable="0">
                    <mxGeometry x="-0.1433" y="13" relative="1" as="geometry">
                        <mxPoint x="-57" y="45" as="offset"/>
                    </mxGeometry>
                </mxCell>
                <mxCell id="JqvngfZ4Gw1TeKTyGAZd-17" style="edgeStyle=orthogonalEdgeStyle;html=1;exitX=1;exitY=0.5;exitDx=0;exitDy=0;entryX=0;entryY=1;entryDx=0;entryDy=0;curved=1;" parent="7trJmH735Tpelf56GsNn-1" source="JqvngfZ4Gw1TeKTyGAZd-19" target="JqvngfZ4Gw1TeKTyGAZd-3" edge="1">
                    <mxGeometry relative="1" as="geometry">
                        <Array as="points">
                            <mxPoint x="3360" y="660"/>
                            <mxPoint x="3360" y="590"/>
                            <mxPoint x="3901" y="590"/>
                        </Array>
                    </mxGeometry>
                </mxCell>
                <mxCell id="JqvngfZ4Gw1TeKTyGAZd-18" value="response_msg" style="edgeLabel;html=1;align=center;verticalAlign=middle;resizable=0;points=[];fontFamily=Helvetica;fontSize=20;fontColor=default;labelBackgroundColor=default;fillColor=none;gradientColor=none;fontStyle=1" parent="JqvngfZ4Gw1TeKTyGAZd-17" vertex="1" connectable="0">
                    <mxGeometry x="0.0012" y="6" relative="1" as="geometry">
                        <mxPoint x="-81" y="17" as="offset"/>
                    </mxGeometry>
                </mxCell>
                <mxCell id="JqvngfZ4Gw1TeKTyGAZd-13" style="edgeStyle=orthogonalEdgeStyle;html=1;entryX=1;entryY=0.5;entryDx=0;entryDy=0;curved=1;exitX=0;exitY=0;exitDx=0;exitDy=0;" parent="7trJmH735Tpelf56GsNn-1" source="JqvngfZ4Gw1TeKTyGAZd-3" target="JqvngfZ4Gw1TeKTyGAZd-11" edge="1">
                    <mxGeometry relative="1" as="geometry">
                        <mxPoint x="3575" y="360" as="sourcePoint"/>
                        <Array as="points">
                            <mxPoint x="3360" y="326"/>
                            <mxPoint x="3360" y="550"/>
                        </Array>
                    </mxGeometry>
                </mxCell>
                <mxCell id="JqvngfZ4Gw1TeKTyGAZd-14" value="request_msg" style="edgeLabel;html=1;align=center;verticalAlign=middle;resizable=0;points=[];fontFamily=Helvetica;fontSize=20;fontColor=default;labelBackgroundColor=default;fontStyle=1" parent="JqvngfZ4Gw1TeKTyGAZd-13" vertex="1" connectable="0">
                    <mxGeometry x="0.1697" y="-1" relative="1" as="geometry">
                        <mxPoint x="26" y="55" as="offset"/>
                    </mxGeometry>
                </mxCell>
                <mxCell id="JqvngfZ4Gw1TeKTyGAZd-33" style="edgeStyle=orthogonalEdgeStyle;html=1;exitX=1;exitY=0.5;exitDx=0;exitDy=0;entryX=0;entryY=1;entryDx=0;entryDy=0;curved=1;" parent="7trJmH735Tpelf56GsNn-1" source="JqvngfZ4Gw1TeKTyGAZd-27" target="JqvngfZ4Gw1TeKTyGAZd-22" edge="1">
                    <mxGeometry relative="1" as="geometry"/>
                </mxCell>
                <mxCell id="JqvngfZ4Gw1TeKTyGAZd-39" value="&lt;span style=&quot;color: rgb(0, 0, 0); font-size: 20px; font-weight: 700;&quot;&gt;response_msg&lt;/span&gt;" style="edgeLabel;html=1;align=center;verticalAlign=middle;resizable=0;points=[];" parent="JqvngfZ4Gw1TeKTyGAZd-33" vertex="1" connectable="0">
                    <mxGeometry x="-0.4048" y="1" relative="1" as="geometry">
                        <mxPoint x="3" y="1" as="offset"/>
                    </mxGeometry>
                </mxCell>
                <mxCell id="JqvngfZ4Gw1TeKTyGAZd-35" style="edgeStyle=orthogonalEdgeStyle;html=1;exitX=1;exitY=1;exitDx=0;exitDy=0;entryX=0;entryY=0.5;entryDx=0;entryDy=0;curved=1;" parent="7trJmH735Tpelf56GsNn-1" source="JqvngfZ4Gw1TeKTyGAZd-29" target="JqvngfZ4Gw1TeKTyGAZd-27" edge="1">
                    <mxGeometry relative="1" as="geometry"/>
                </mxCell>
                <mxCell id="JqvngfZ4Gw1TeKTyGAZd-38" value="&lt;span style=&quot;color: rgb(0, 0, 0); font-size: 20px; font-weight: 700;&quot;&gt;response_msg&lt;/span&gt;" style="edgeLabel;html=1;align=center;verticalAlign=middle;resizable=0;points=[];" parent="JqvngfZ4Gw1TeKTyGAZd-35" vertex="1" connectable="0">
                    <mxGeometry x="0.0992" y="-4" relative="1" as="geometry">
                        <mxPoint as="offset"/>
                    </mxGeometry>
                </mxCell>
                <mxCell id="JqvngfZ4Gw1TeKTyGAZd-31" style="edgeStyle=orthogonalEdgeStyle;html=1;exitX=0;exitY=0;exitDx=0;exitDy=0;entryX=1;entryY=0.5;entryDx=0;entryDy=0;curved=1;" parent="7trJmH735Tpelf56GsNn-1" source="JqvngfZ4Gw1TeKTyGAZd-22" target="JqvngfZ4Gw1TeKTyGAZd-25" edge="1">
                    <mxGeometry relative="1" as="geometry"/>
                </mxCell>
                <mxCell id="JqvngfZ4Gw1TeKTyGAZd-36" value="&lt;span style=&quot;color: rgb(0, 0, 0); font-size: 20px; font-weight: 700;&quot;&gt;request_msg&lt;/span&gt;" style="edgeLabel;html=1;align=center;verticalAlign=middle;resizable=0;points=[];" parent="JqvngfZ4Gw1TeKTyGAZd-31" vertex="1" connectable="0">
                    <mxGeometry x="0.4713" y="-26" relative="1" as="geometry">
                        <mxPoint x="-25" y="1" as="offset"/>
                    </mxGeometry>
                </mxCell>
                <mxCell id="JqvngfZ4Gw1TeKTyGAZd-34" style="edgeStyle=orthogonalEdgeStyle;html=1;exitX=0;exitY=0.5;exitDx=0;exitDy=0;entryX=1;entryY=0;entryDx=0;entryDy=0;curved=1;" parent="7trJmH735Tpelf56GsNn-1" source="JqvngfZ4Gw1TeKTyGAZd-25" target="JqvngfZ4Gw1TeKTyGAZd-29" edge="1">
                    <mxGeometry relative="1" as="geometry">
                        <Array as="points">
                            <mxPoint x="2452" y="1045"/>
                        </Array>
                    </mxGeometry>
                </mxCell>
                <mxCell id="JqvngfZ4Gw1TeKTyGAZd-37" value="&lt;span style=&quot;color: rgb(0, 0, 0); font-size: 20px; font-weight: 700;&quot;&gt;request_msg&lt;/span&gt;" style="edgeLabel;html=1;align=center;verticalAlign=middle;resizable=0;points=[];" parent="JqvngfZ4Gw1TeKTyGAZd-34" vertex="1" connectable="0">
                    <mxGeometry x="-0.2988" y="5" relative="1" as="geometry">
                        <mxPoint x="1" as="offset"/>
                    </mxGeometry>
                </mxCell>
                <mxCell id="BFE8A_c0GuwXJZfaG0Pr-0" value="" style="whiteSpace=wrap;html=1;fontFamily=Helvetica;fontSize=11;fontColor=default;labelBackgroundColor=default;movable=1;resizable=1;rotatable=1;deletable=1;editable=1;locked=0;connectable=1;" parent="7trJmH735Tpelf56GsNn-1" vertex="1">
                    <mxGeometry x="790" y="2050" width="4870" height="2850" as="geometry"/>
                </mxCell>
                <mxCell id="BFE8A_c0GuwXJZfaG0Pr-1" value="" style="rounded=1;whiteSpace=wrap;html=1;fontFamily=Helvetica;fontSize=11;labelBackgroundColor=default;fillColor=#f8cecc;strokeColor=#b85450;" parent="7trJmH735Tpelf56GsNn-1" vertex="1">
                    <mxGeometry x="1960" y="2780" width="680" height="590" as="geometry"/>
                </mxCell>
                <mxCell id="BFE8A_c0GuwXJZfaG0Pr-2" value="" style="rounded=1;whiteSpace=wrap;html=1;fontFamily=Helvetica;fontSize=11;labelBackgroundColor=default;fillColor=#dae8fc;strokeColor=#6c8ebf;" parent="7trJmH735Tpelf56GsNn-1" vertex="1">
                    <mxGeometry x="3540" y="2840" width="820" height="950" as="geometry"/>
                </mxCell>
                <mxCell id="BFE8A_c0GuwXJZfaG0Pr-3" value="SpawnService&lt;br&gt;Server" style="ellipse;whiteSpace=wrap;html=1;fillColor=#1ba1e2;strokeColor=#006EAF;fontColor=#ffffff;fontSize=30;fontStyle=1" parent="7trJmH735Tpelf56GsNn-1" vertex="1">
                    <mxGeometry x="3820" y="2980" width="280" height="280" as="geometry"/>
                </mxCell>
                <mxCell id="BFE8A_c0GuwXJZfaG0Pr-4" value="SpawnService&lt;br&gt;Client" style="ellipse;whiteSpace=wrap;html=1;fillColor=#f0a30a;fontColor=#000000;strokeColor=#BD7000;fontSize=30;fontStyle=1" parent="7trJmH735Tpelf56GsNn-1" vertex="1">
                    <mxGeometry x="2155" y="2965" width="255" height="255" as="geometry"/>
                </mxCell>
                <mxCell id="BFE8A_c0GuwXJZfaG0Pr-5" value="&lt;span&gt;Turtlesim Node&lt;/span&gt;" style="text;html=1;align=center;verticalAlign=middle;resizable=0;points=[];autosize=1;strokeColor=none;fillColor=none;fontFamily=Helvetica;fontSize=40;fontColor=default;labelBackgroundColor=none;strokeWidth=3;fontStyle=1;" parent="7trJmH735Tpelf56GsNn-1" vertex="1">
                    <mxGeometry x="3815" y="2860" width="290" height="60" as="geometry"/>
                </mxCell>
                <mxCell id="BFE8A_c0GuwXJZfaG0Pr-6" value="&lt;span&gt;Spawn Client Node&amp;nbsp;&lt;/span&gt;" style="text;html=1;align=center;verticalAlign=middle;resizable=0;points=[];autosize=1;strokeColor=none;fillColor=none;fontFamily=Helvetica;fontSize=40;fontColor=default;labelBackgroundColor=none;strokeWidth=3;fontStyle=1" parent="7trJmH735Tpelf56GsNn-1" vertex="1">
                    <mxGeometry x="2110" y="2800" width="380" height="60" as="geometry"/>
                </mxCell>
                <mxCell id="BFE8A_c0GuwXJZfaG0Pr-7" value="&lt;h1&gt;&lt;font&gt;Multi Server- Client Turtlesim&lt;/font&gt;&lt;/h1&gt;" style="text;html=1;align=center;verticalAlign=middle;resizable=0;points=[];autosize=1;strokeColor=none;fillColor=none;fontFamily=Helvetica;fontSize=30;fontColor=default;labelBackgroundColor=default;" parent="7trJmH735Tpelf56GsNn-1" vertex="1">
                    <mxGeometry x="2775" y="2190" width="850" height="170" as="geometry"/>
                </mxCell>
                <mxCell id="BFE8A_c0GuwXJZfaG0Pr-8" value="ClearService&lt;br&gt;Server" style="ellipse;whiteSpace=wrap;html=1;fillColor=#1ba1e2;strokeColor=#006EAF;fontColor=#ffffff;fontSize=30;fontStyle=1" parent="7trJmH735Tpelf56GsNn-1" vertex="1">
                    <mxGeometry x="3855" y="3430" width="280" height="280" as="geometry"/>
                </mxCell>
                <mxCell id="BFE8A_c0GuwXJZfaG0Pr-9" value="" style="rounded=1;whiteSpace=wrap;html=1;fontFamily=Helvetica;fontSize=11;labelBackgroundColor=default;fillColor=#f8cecc;strokeColor=#b85450;" parent="7trJmH735Tpelf56GsNn-1" vertex="1">
                    <mxGeometry x="2000" y="3635" width="640" height="590" as="geometry"/>
                </mxCell>
                <mxCell id="BFE8A_c0GuwXJZfaG0Pr-10" value="ClearService&lt;br&gt;Client" style="ellipse;whiteSpace=wrap;html=1;fillColor=#f0a30a;fontColor=#000000;strokeColor=#BD7000;fontSize=30;fontStyle=1" parent="7trJmH735Tpelf56GsNn-1" vertex="1">
                    <mxGeometry x="2190" y="3840" width="260" height="260" as="geometry"/>
                </mxCell>
                <mxCell id="BFE8A_c0GuwXJZfaG0Pr-12" value="" style="group" parent="7trJmH735Tpelf56GsNn-1" vertex="1" connectable="0">
                    <mxGeometry x="2980" y="3145" width="235" height="255" as="geometry"/>
                </mxCell>
                <mxCell id="BFE8A_c0GuwXJZfaG0Pr-13" value="" style="rounded=1;whiteSpace=wrap;html=1;fillColor=#e3c800;strokeColor=#B09500;fontColor=#000000;fontSize=20;fontStyle=1" parent="BFE8A_c0GuwXJZfaG0Pr-12" vertex="1">
                    <mxGeometry width="235" height="255" as="geometry"/>
                </mxCell>
                <mxCell id="BFE8A_c0GuwXJZfaG0Pr-14" value="Request" style="rounded=1;whiteSpace=wrap;html=1;fillColor=#76608a;fontColor=#ffffff;strokeColor=#432D57;fontSize=20;fontStyle=1" parent="BFE8A_c0GuwXJZfaG0Pr-12" vertex="1">
                    <mxGeometry x="57.5" y="55" width="120" height="60" as="geometry"/>
                </mxCell>
                <mxCell id="BFE8A_c0GuwXJZfaG0Pr-15" value="/spawn" style="text;html=1;align=center;verticalAlign=middle;resizable=0;points=[];autosize=1;strokeColor=none;fillColor=none;fontSize=20;fontStyle=1" parent="BFE8A_c0GuwXJZfaG0Pr-12" vertex="1">
                    <mxGeometry x="72.5" width="90" height="40" as="geometry"/>
                </mxCell>
                <mxCell id="BFE8A_c0GuwXJZfaG0Pr-16" value="Response" style="rounded=1;whiteSpace=wrap;html=1;fillColor=#76608a;fontColor=#ffffff;strokeColor=#432D57;fontSize=20;fontStyle=1" parent="BFE8A_c0GuwXJZfaG0Pr-12" vertex="1">
                    <mxGeometry x="57.5" y="165" width="120" height="60" as="geometry"/>
                </mxCell>
                <mxCell id="BFE8A_c0GuwXJZfaG0Pr-17" style="edgeStyle=orthogonalEdgeStyle;html=1;exitX=1;exitY=1;exitDx=0;exitDy=0;entryX=0;entryY=0.5;entryDx=0;entryDy=0;curved=1;" parent="7trJmH735Tpelf56GsNn-1" source="BFE8A_c0GuwXJZfaG0Pr-4" target="BFE8A_c0GuwXJZfaG0Pr-16" edge="1">
                    <mxGeometry relative="1" as="geometry"/>
                </mxCell>
                <mxCell id="BFE8A_c0GuwXJZfaG0Pr-18" value="&lt;span style=&quot;color: rgb(0, 0, 0);&quot;&gt;response_msg&lt;/span&gt;" style="edgeLabel;html=1;align=center;verticalAlign=middle;resizable=0;points=[];fontSize=20;fontStyle=1" parent="BFE8A_c0GuwXJZfaG0Pr-17" vertex="1" connectable="0">
                    <mxGeometry x="0.1202" y="-1" relative="1" as="geometry">
                        <mxPoint y="1" as="offset"/>
                    </mxGeometry>
                </mxCell>
                <mxCell id="BFE8A_c0GuwXJZfaG0Pr-19" value="" style="group" parent="7trJmH735Tpelf56GsNn-1" vertex="1" connectable="0">
                    <mxGeometry x="2940" y="3640" width="235" height="255" as="geometry"/>
                </mxCell>
                <mxCell id="BFE8A_c0GuwXJZfaG0Pr-20" value="" style="rounded=1;whiteSpace=wrap;html=1;fillColor=#e3c800;strokeColor=#B09500;fontColor=#000000;fontSize=20;fontStyle=1" parent="BFE8A_c0GuwXJZfaG0Pr-19" vertex="1">
                    <mxGeometry width="235" height="255" as="geometry"/>
                </mxCell>
                <mxCell id="BFE8A_c0GuwXJZfaG0Pr-21" value="Request" style="rounded=1;whiteSpace=wrap;html=1;fillColor=#76608a;fontColor=#ffffff;strokeColor=#432D57;fontSize=20;fontStyle=1" parent="BFE8A_c0GuwXJZfaG0Pr-19" vertex="1">
                    <mxGeometry x="57.5" y="55" width="120" height="60" as="geometry"/>
                </mxCell>
                <mxCell id="BFE8A_c0GuwXJZfaG0Pr-22" value="/clear" style="text;html=1;align=center;verticalAlign=middle;resizable=0;points=[];autosize=1;strokeColor=none;fillColor=none;fontSize=20;fontStyle=1" parent="BFE8A_c0GuwXJZfaG0Pr-19" vertex="1">
                    <mxGeometry x="82.5" width="70" height="40" as="geometry"/>
                </mxCell>
                <mxCell id="BFE8A_c0GuwXJZfaG0Pr-23" value="Response" style="rounded=1;whiteSpace=wrap;html=1;fillColor=#76608a;fontColor=#ffffff;strokeColor=#432D57;fontSize=20;fontStyle=1" parent="BFE8A_c0GuwXJZfaG0Pr-19" vertex="1">
                    <mxGeometry x="57.5" y="165" width="120" height="60" as="geometry"/>
                </mxCell>
                <mxCell id="BFE8A_c0GuwXJZfaG0Pr-24" style="edgeStyle=orthogonalEdgeStyle;html=1;entryX=1;entryY=0;entryDx=0;entryDy=0;curved=1;exitX=0;exitY=0.5;exitDx=0;exitDy=0;" parent="7trJmH735Tpelf56GsNn-1" source="BFE8A_c0GuwXJZfaG0Pr-14" target="BFE8A_c0GuwXJZfaG0Pr-4" edge="1">
                    <mxGeometry relative="1" as="geometry">
                        <Array as="points">
                            <mxPoint x="2880" y="3230"/>
                            <mxPoint x="2880" y="3002"/>
                        </Array>
                    </mxGeometry>
                </mxCell>
                <mxCell id="BFE8A_c0GuwXJZfaG0Pr-25" value="&lt;span style=&quot;color: rgb(0, 0, 0);&quot;&gt;request_msg&lt;/span&gt;" style="edgeLabel;html=1;align=center;verticalAlign=middle;resizable=0;points=[];fontFamily=Helvetica;fontSize=20;fontColor=default;labelBackgroundColor=default;fontStyle=1" parent="BFE8A_c0GuwXJZfaG0Pr-24" vertex="1" connectable="0">
                    <mxGeometry x="-0.1433" y="13" relative="1" as="geometry">
                        <mxPoint x="-57" y="45" as="offset"/>
                    </mxGeometry>
                </mxCell>
                <mxCell id="BFE8A_c0GuwXJZfaG0Pr-26" style="edgeStyle=orthogonalEdgeStyle;html=1;exitX=1;exitY=0.5;exitDx=0;exitDy=0;entryX=0;entryY=1;entryDx=0;entryDy=0;curved=1;" parent="7trJmH735Tpelf56GsNn-1" source="BFE8A_c0GuwXJZfaG0Pr-16" target="BFE8A_c0GuwXJZfaG0Pr-3" edge="1">
                    <mxGeometry relative="1" as="geometry">
                        <Array as="points">
                            <mxPoint x="3320" y="3340"/>
                            <mxPoint x="3320" y="3270"/>
                            <mxPoint x="3861" y="3270"/>
                        </Array>
                    </mxGeometry>
                </mxCell>
                <mxCell id="BFE8A_c0GuwXJZfaG0Pr-27" value="response_msg" style="edgeLabel;html=1;align=center;verticalAlign=middle;resizable=0;points=[];fontFamily=Helvetica;fontSize=20;fontColor=default;labelBackgroundColor=default;fillColor=none;gradientColor=none;fontStyle=1" parent="BFE8A_c0GuwXJZfaG0Pr-26" vertex="1" connectable="0">
                    <mxGeometry x="0.0012" y="6" relative="1" as="geometry">
                        <mxPoint x="-81" y="17" as="offset"/>
                    </mxGeometry>
                </mxCell>
                <mxCell id="BFE8A_c0GuwXJZfaG0Pr-28" style="edgeStyle=orthogonalEdgeStyle;html=1;entryX=1;entryY=0.5;entryDx=0;entryDy=0;curved=1;exitX=0;exitY=0;exitDx=0;exitDy=0;" parent="7trJmH735Tpelf56GsNn-1" source="BFE8A_c0GuwXJZfaG0Pr-3" target="BFE8A_c0GuwXJZfaG0Pr-14" edge="1">
                    <mxGeometry relative="1" as="geometry">
                        <mxPoint x="3535" y="3040" as="sourcePoint"/>
                        <Array as="points">
                            <mxPoint x="3320" y="3006"/>
                            <mxPoint x="3320" y="3230"/>
                        </Array>
                    </mxGeometry>
                </mxCell>
                <mxCell id="BFE8A_c0GuwXJZfaG0Pr-29" value="request_msg" style="edgeLabel;html=1;align=center;verticalAlign=middle;resizable=0;points=[];fontFamily=Helvetica;fontSize=20;fontColor=default;labelBackgroundColor=default;fontStyle=1" parent="BFE8A_c0GuwXJZfaG0Pr-28" vertex="1" connectable="0">
                    <mxGeometry x="0.1697" y="-1" relative="1" as="geometry">
                        <mxPoint x="26" y="55" as="offset"/>
                    </mxGeometry>
                </mxCell>
                <mxCell id="BFE8A_c0GuwXJZfaG0Pr-30" style="edgeStyle=orthogonalEdgeStyle;html=1;exitX=1;exitY=0.5;exitDx=0;exitDy=0;entryX=0;entryY=1;entryDx=0;entryDy=0;curved=1;" parent="7trJmH735Tpelf56GsNn-1" source="BFE8A_c0GuwXJZfaG0Pr-23" target="BFE8A_c0GuwXJZfaG0Pr-8" edge="1">
                    <mxGeometry relative="1" as="geometry"/>
                </mxCell>
                <mxCell id="BFE8A_c0GuwXJZfaG0Pr-31" value="&lt;span style=&quot;color: rgb(0, 0, 0); font-size: 20px; font-weight: 700;&quot;&gt;response_msg&lt;/span&gt;" style="edgeLabel;html=1;align=center;verticalAlign=middle;resizable=0;points=[];" parent="BFE8A_c0GuwXJZfaG0Pr-30" vertex="1" connectable="0">
                    <mxGeometry x="-0.4048" y="1" relative="1" as="geometry">
                        <mxPoint x="3" y="1" as="offset"/>
                    </mxGeometry>
                </mxCell>
                <mxCell id="BFE8A_c0GuwXJZfaG0Pr-32" style="edgeStyle=orthogonalEdgeStyle;html=1;exitX=1;exitY=1;exitDx=0;exitDy=0;entryX=0;entryY=0.5;entryDx=0;entryDy=0;curved=1;" parent="7trJmH735Tpelf56GsNn-1" source="BFE8A_c0GuwXJZfaG0Pr-10" target="BFE8A_c0GuwXJZfaG0Pr-23" edge="1">
                    <mxGeometry relative="1" as="geometry"/>
                </mxCell>
                <mxCell id="BFE8A_c0GuwXJZfaG0Pr-33" value="&lt;span style=&quot;color: rgb(0, 0, 0); font-size: 20px; font-weight: 700;&quot;&gt;response_msg&lt;/span&gt;" style="edgeLabel;html=1;align=center;verticalAlign=middle;resizable=0;points=[];" parent="BFE8A_c0GuwXJZfaG0Pr-32" vertex="1" connectable="0">
                    <mxGeometry x="0.0992" y="-4" relative="1" as="geometry">
                        <mxPoint as="offset"/>
                    </mxGeometry>
                </mxCell>
                <mxCell id="BFE8A_c0GuwXJZfaG0Pr-34" style="edgeStyle=orthogonalEdgeStyle;html=1;exitX=0;exitY=0;exitDx=0;exitDy=0;entryX=1;entryY=0.5;entryDx=0;entryDy=0;curved=1;" parent="7trJmH735Tpelf56GsNn-1" source="BFE8A_c0GuwXJZfaG0Pr-8" target="BFE8A_c0GuwXJZfaG0Pr-21" edge="1">
                    <mxGeometry relative="1" as="geometry"/>
                </mxCell>
                <mxCell id="BFE8A_c0GuwXJZfaG0Pr-35" value="&lt;span style=&quot;color: rgb(0, 0, 0); font-size: 20px; font-weight: 700;&quot;&gt;request_msg&lt;/span&gt;" style="edgeLabel;html=1;align=center;verticalAlign=middle;resizable=0;points=[];" parent="BFE8A_c0GuwXJZfaG0Pr-34" vertex="1" connectable="0">
                    <mxGeometry x="0.4713" y="-26" relative="1" as="geometry">
                        <mxPoint x="-25" y="1" as="offset"/>
                    </mxGeometry>
                </mxCell>
                <mxCell id="BFE8A_c0GuwXJZfaG0Pr-36" style="edgeStyle=orthogonalEdgeStyle;html=1;exitX=0;exitY=0.5;exitDx=0;exitDy=0;entryX=1;entryY=0;entryDx=0;entryDy=0;curved=1;" parent="7trJmH735Tpelf56GsNn-1" source="BFE8A_c0GuwXJZfaG0Pr-21" target="BFE8A_c0GuwXJZfaG0Pr-10" edge="1">
                    <mxGeometry relative="1" as="geometry">
                        <Array as="points">
                            <mxPoint x="2412" y="3725"/>
                        </Array>
                    </mxGeometry>
                </mxCell>
                <mxCell id="BFE8A_c0GuwXJZfaG0Pr-37" value="&lt;span style=&quot;color: rgb(0, 0, 0); font-size: 20px; font-weight: 700;&quot;&gt;request_msg&lt;/span&gt;" style="edgeLabel;html=1;align=center;verticalAlign=middle;resizable=0;points=[];" parent="BFE8A_c0GuwXJZfaG0Pr-36" vertex="1" connectable="0">
                    <mxGeometry x="-0.2988" y="5" relative="1" as="geometry">
                        <mxPoint x="1" as="offset"/>
                    </mxGeometry>
                </mxCell>
                <mxCell id="BFE8A_c0GuwXJZfaG0Pr-38" value="&lt;span&gt;Clear Client Node&amp;nbsp;&lt;/span&gt;" style="text;html=1;align=center;verticalAlign=middle;resizable=0;points=[];autosize=1;strokeColor=none;fillColor=none;fontFamily=Helvetica;fontSize=40;fontColor=default;labelBackgroundColor=none;strokeWidth=3;fontStyle=1" parent="7trJmH735Tpelf56GsNn-1" vertex="1">
                    <mxGeometry x="2135" y="3660" width="350" height="60" as="geometry"/>
                </mxCell>
                <mxCell id="BFE8A_c0GuwXJZfaG0Pr-39" value="&lt;pre&gt;{Interface1_type}&lt;/pre&gt;" style="text;html=1;align=center;verticalAlign=middle;resizable=0;points=[];autosize=1;strokeColor=none;fillColor=none;fontFamily=Helvetica;fontSize=18;fontColor=default;labelBackgroundColor=default;fontStyle=1" parent="7trJmH735Tpelf56GsNn-1" vertex="1">
                    <mxGeometry x="3295" y="260" width="210" height="70" as="geometry"/>
                </mxCell>
                <mxCell id="BFE8A_c0GuwXJZfaG0Pr-41" value="&lt;pre&gt;{Interface1_type}&lt;/pre&gt;" style="text;html=1;align=center;verticalAlign=middle;resizable=0;points=[];autosize=1;strokeColor=none;fillColor=none;fontFamily=Helvetica;fontSize=18;fontColor=default;labelBackgroundColor=default;fontStyle=1" parent="7trJmH735Tpelf56GsNn-1" vertex="1">
                    <mxGeometry x="2655" y="660" width="210" height="70" as="geometry"/>
                </mxCell>
                <mxCell id="BFE8A_c0GuwXJZfaG0Pr-42" value="&lt;pre&gt;{Interface2_type}&lt;/pre&gt;" style="text;html=1;align=center;verticalAlign=middle;resizable=0;points=[];autosize=1;strokeColor=none;fillColor=none;fontFamily=Helvetica;fontSize=18;fontColor=default;labelBackgroundColor=default;fontStyle=1" parent="7trJmH735Tpelf56GsNn-1" vertex="1">
                    <mxGeometry x="3270" y="920" width="210" height="70" as="geometry"/>
                </mxCell>
                <mxCell id="BFE8A_c0GuwXJZfaG0Pr-45" value="&lt;pre&gt;{Interface2_type}&lt;/pre&gt;" style="text;html=1;align=center;verticalAlign=middle;resizable=0;points=[];autosize=1;strokeColor=none;fillColor=none;fontFamily=Helvetica;fontSize=18;fontColor=default;labelBackgroundColor=default;fontStyle=1" parent="7trJmH735Tpelf56GsNn-1" vertex="1">
                    <mxGeometry x="2765" y="1290" width="210" height="70" as="geometry"/>
                </mxCell>
                <mxCell id="BFE8A_c0GuwXJZfaG0Pr-46" value="&lt;pre&gt;&lt;br&gt;&lt;h2 style=&quot;color: rgb(51, 51, 51); font-family: Palatino, serif; text-align: left; white-space: normal;&quot;&gt;&lt;span class=&quot;filename&quot; style=&quot;padding: 5px; border: 1px solid rgb(51, 51, 51);&quot;&gt;turtlesim/Spawn.srv&lt;/span&gt;&lt;/h2&gt;&lt;br&gt;&lt;/pre&gt;" style="text;html=1;align=center;verticalAlign=middle;resizable=0;points=[];autosize=1;strokeColor=none;fillColor=none;fontFamily=Helvetica;fontSize=15;fontColor=default;labelBackgroundColor=none;fontStyle=1" parent="7trJmH735Tpelf56GsNn-1" vertex="1">
                    <mxGeometry x="3225" y="2915" width="230" height="140" as="geometry"/>
                </mxCell>
                <mxCell id="BFE8A_c0GuwXJZfaG0Pr-47" value="&lt;pre&gt;&lt;br&gt;&lt;h2 style=&quot;color: rgb(51, 51, 51); font-family: Palatino, serif; text-align: left; white-space: normal;&quot;&gt;&lt;span class=&quot;filename&quot; style=&quot;padding: 5px; border: 1px solid rgb(51, 51, 51);&quot;&gt;turtlesim/Spawn.srv&lt;/span&gt;&lt;/h2&gt;&lt;br&gt;&lt;/pre&gt;" style="text;html=1;align=center;verticalAlign=middle;resizable=0;points=[];autosize=1;strokeColor=none;fillColor=none;fontFamily=Helvetica;fontSize=15;fontColor=default;labelBackgroundColor=none;fontStyle=1" parent="7trJmH735Tpelf56GsNn-1" vertex="1">
                    <mxGeometry x="2630" y="3300" width="230" height="140" as="geometry"/>
                </mxCell>
                <mxCell id="BFE8A_c0GuwXJZfaG0Pr-52" value="&lt;pre&gt;&lt;h2 style=&quot;color: rgb(51, 51, 51); font-family: Palatino, serif; text-align: left; white-space: normal;&quot;&gt;&lt;span style=&quot;padding: 5px; border: 1px solid rgb(51, 51, 51);&quot; class=&quot;filename&quot;&gt;std_srvs/Empty.srv&lt;/span&gt;&lt;/h2&gt;&lt;/pre&gt;" style="text;html=1;align=center;verticalAlign=middle;resizable=0;points=[];autosize=1;strokeColor=none;fillColor=none;fontFamily=Helvetica;fontSize=15;fontColor=default;labelBackgroundColor=none;fontStyle=1" parent="7trJmH735Tpelf56GsNn-1" vertex="1">
                    <mxGeometry x="3235" y="3565" width="220" height="80" as="geometry"/>
                </mxCell>
                <mxCell id="BFE8A_c0GuwXJZfaG0Pr-53" value="&lt;pre&gt;&lt;h2 style=&quot;color: rgb(51, 51, 51); font-family: Palatino, serif; text-align: left; white-space: normal;&quot;&gt;&lt;span class=&quot;filename&quot; style=&quot;padding: 5px; border: 1px solid rgb(51, 51, 51);&quot;&gt;std_srvs/Empty.srv&lt;/span&gt;&lt;/h2&gt;&lt;/pre&gt;" style="text;html=1;align=center;verticalAlign=middle;resizable=0;points=[];autosize=1;strokeColor=none;fillColor=none;fontFamily=Helvetica;fontSize=15;fontColor=default;labelBackgroundColor=default;fontStyle=1" parent="7trJmH735Tpelf56GsNn-1" vertex="1">
                    <mxGeometry x="2740" y="3975" width="220" height="80" as="geometry"/>
                </mxCell>
            </root>
        </mxGraphModel>
    </diagram>
</mxfile>